<svg width="18" height="26" viewBox="0 0 18 26" fill="none" xmlns="http://www.w3.org/2000/svg">
<path fill-rule="evenodd" clip-rule="evenodd" d="M4.95675 0.00121074C3.90497 0.000433618 2.88025 0.333446 2.031 0.952014C1.18176 1.57058 0.552079 2.44259 0.233171 3.44174C-0.0857377 4.44089 -0.0773189 5.5153 0.257208 6.50936C0.591735 7.50342 1.235 8.36552 2.09384 8.97079C1.44736 9.42691 0.920118 10.031 0.55641 10.7324C0.192703 11.4338 0.00314885 12.2119 0.00367131 13.0015C0.00367131 14.6655 0.82979 16.1385 2.09626 17.0322C1.40246 17.5217 0.846726 18.1811 0.482529 18.9468C0.118333 19.7125 -0.0420682 20.5587 0.0167599 21.404C0.0755879 22.2494 0.351665 23.0654 0.818428 23.7737C1.28519 24.4819 1.92693 25.0584 2.6819 25.4478C3.43687 25.8372 4.27967 26.0263 5.12919 25.997C5.97872 25.9678 6.80639 25.721 7.53256 25.2805C8.25874 24.8401 8.85898 24.2207 9.27554 23.482C9.69209 22.7433 9.91095 21.9102 9.91104 21.0628V16.8254C10.4263 17.2415 11.0202 17.5503 11.6575 17.7334C12.2947 17.9164 12.9623 17.9701 13.6208 17.8911C14.2792 17.8121 14.915 17.6021 15.4905 17.2735C16.066 16.945 16.5694 16.5046 16.9709 15.9784C17.3725 15.4522 17.6639 14.8511 17.828 14.2105C17.9921 13.5699 18.0255 12.9031 17.9262 12.2494C17.8269 11.5957 17.5969 10.9686 17.2499 10.4052C16.9029 9.84181 16.446 9.35361 15.9062 8.96958C16.765 8.36431 17.4083 7.50221 17.7428 6.50815C18.0773 5.51409 18.0857 4.43968 17.7668 3.44053C17.4479 2.44138 16.8182 1.56937 15.969 0.950805C15.1198 0.332237 14.095 -0.000775765 13.0433 1.35704e-06L4.95675 0.00121074ZM8.09018 16.1252H4.95675C4.54526 16.1252 4.1378 16.0444 3.75764 15.8874C3.37747 15.7304 3.03204 15.5003 2.74108 15.2103C2.45011 14.9202 2.2193 14.5758 2.06184 14.1969C1.90437 13.8179 1.82332 13.4117 1.82332 13.0015C1.82332 12.5913 1.90437 12.1851 2.06184 11.8061C2.2193 11.4271 2.45011 11.0828 2.74108 10.7927C3.03204 10.5026 3.37747 10.2725 3.75764 10.1156C4.1378 9.95858 4.54526 9.87778 4.95675 9.87778H8.09018V16.1252ZM4.95675 8.06379H8.09018V1.8152H4.95675C4.12555 1.8152 3.32839 2.14437 2.74065 2.73029C2.1529 3.3162 1.82271 4.11088 1.82271 4.9395C1.82271 5.76811 2.1529 6.56279 2.74065 7.14871C3.32839 7.73463 4.12555 8.06379 4.95675 8.06379ZM16.1779 4.93889C16.1782 5.76693 15.8487 6.56121 15.2618 7.14717C14.675 7.73314 13.8787 8.06283 13.0481 8.06379H9.90982V1.8152H13.0445C13.456 1.8152 13.8634 1.896 14.2436 2.05298C14.6237 2.20996 14.9692 2.44005 15.2601 2.73011C15.5511 3.02017 15.7819 3.36452 15.9394 3.74351C16.0968 4.12249 16.1779 4.52868 16.1779 4.93889ZM9.90982 12.9978C9.91079 12.1706 10.2408 11.3776 10.8276 10.7927C11.4143 10.2078 12.2098 9.87874 13.0396 9.87778H13.0469C13.6663 9.8785 14.2716 10.0622 14.7864 10.4057C15.3011 10.7492 15.7021 11.2371 15.9389 11.8078C16.1756 12.3784 16.2373 13.0062 16.1163 13.6118C15.9953 14.2174 15.6969 14.7736 15.2589 15.2103C14.8209 15.6469 14.2629 15.9443 13.6554 16.065C13.048 16.1856 12.4182 16.1241 11.8458 15.8881C11.2734 15.6521 10.784 15.2523 10.4394 14.7392C10.0948 14.226 9.91054 13.6226 9.90982 13.0051V12.9978ZM4.95675 17.9392C4.33706 17.9392 3.7313 18.1223 3.21603 18.4655C2.70077 18.8087 2.29915 19.2965 2.06195 19.8672C1.82475 20.4379 1.76263 21.0659 1.88344 21.6718C2.00424 22.2777 2.30255 22.8343 2.74065 23.2712C3.17875 23.7081 3.73696 24.0057 4.3447 24.1264C4.95245 24.247 5.58244 24.1853 6.15502 23.9491C6.7276 23.7129 7.21706 23.3127 7.56151 22.7992C7.90596 22.2856 8.08994 21.6818 8.09018 21.0641V17.9392H4.95675Z" fill="#8773FB"/>
</svg>
