<svg width="14" height="20" viewBox="0 0 14 20" fill="none" xmlns="http://www.w3.org/2000/svg">
<path fill-rule="evenodd" clip-rule="evenodd" d="M3.85525 0.000931339C3.0372 0.000333552 2.24019 0.256497 1.57967 0.732319C0.919144 1.20814 0.429395 1.87892 0.181355 2.64749C-0.0666849 3.41607 -0.0601369 4.24254 0.200051 5.0072C0.460238 5.77186 0.960557 6.43501 1.62854 6.90061C1.12572 7.25147 0.715647 7.71618 0.432763 8.25569C0.14988 8.79521 0.00244911 9.39379 0.00285546 10.0011C0.00285546 11.2812 0.645392 12.4142 1.63043 13.1017C1.0908 13.4783 0.658565 13.9855 0.375301 14.5744C0.0920367 15.1634 -0.0327197 15.8144 0.0130355 16.4646C0.0587906 17.1149 0.273517 17.7426 0.636555 18.2874C0.999593 18.8322 1.49872 19.2757 2.08592 19.5752C2.67312 19.8748 3.32863 20.0203 3.98937 19.9977C4.65012 19.9752 5.29386 19.7854 5.85866 19.4466C6.42346 19.1077 6.89032 18.6313 7.21431 18.0631C7.5383 17.4949 7.70851 16.854 7.70858 16.2022V12.9426C8.10937 13.2627 8.57127 13.5002 9.06691 13.6411C9.56254 13.7819 10.0818 13.8231 10.5939 13.7624C11.106 13.7016 11.6006 13.5401 12.0482 13.2873C12.4958 13.0346 12.8873 12.6958 13.1996 12.2911C13.5119 11.8863 13.7386 11.4239 13.8662 10.9312C13.9939 10.4384 14.0198 9.92542 13.9426 9.42261C13.8654 8.91979 13.6865 8.43738 13.4166 8.004C13.1467 7.57062 12.7913 7.19509 12.3715 6.89968C13.0394 6.43408 13.5398 5.77093 13.7999 5.00627C14.0601 4.24161 14.0667 3.41514 13.8186 2.64656C13.5706 1.87799 13.0809 1.20721 12.4203 0.731389C11.7598 0.255567 10.9628 -0.000596742 10.1448 1.04387e-06L3.85525 0.000931339ZM6.29236 12.404H3.85525C3.5352 12.404 3.21829 12.3418 2.92261 12.2211C2.62692 12.1003 2.35826 11.9233 2.13195 11.7002C1.90564 11.4771 1.72613 11.2122 1.60365 10.9207C1.48117 10.6291 1.41814 10.3167 1.41814 10.0011C1.41814 9.68559 1.48117 9.37313 1.60365 9.08161C1.72613 8.79008 1.90564 8.52519 2.13195 8.30207C2.35826 8.07894 2.62692 7.90195 2.92261 7.7812C3.21829 7.66044 3.5352 7.59829 3.85525 7.59829H6.29236V12.404ZM3.85525 6.20292H6.29236V1.39631H3.85525C3.20876 1.39631 2.58875 1.64951 2.13162 2.10022C1.67448 2.55093 1.41766 3.16222 1.41766 3.79961C1.41766 4.43701 1.67448 5.0483 2.13162 5.49901C2.58875 5.94971 3.20876 6.20292 3.85525 6.20292ZM12.5828 3.79915C12.5831 4.4361 12.3268 5.04709 11.8703 5.49783C11.4139 5.94857 10.7946 6.20218 10.1485 6.20292H7.70764V1.39631H10.1457C10.4657 1.39631 10.7827 1.45846 11.0783 1.57921C11.374 1.69997 11.6427 1.87696 11.869 2.10008C12.0953 2.32321 12.2748 2.58809 12.3973 2.87962C12.5198 3.17115 12.5828 3.4836 12.5828 3.79915ZM7.70764 9.99834C7.70839 9.36204 7.9651 8.752 8.42145 8.30207C8.87781 7.85213 9.49654 7.59903 10.1419 7.59829H10.1476C10.6294 7.59885 11.1002 7.74017 11.5005 8.00441C11.9008 8.26865 12.2128 8.64395 12.3969 9.08289C12.581 9.52184 12.629 10.0047 12.5349 10.4706C12.4408 10.9364 12.2087 11.3643 11.868 11.7002C11.5274 12.0361 11.0934 12.2649 10.6209 12.3577C10.1484 12.4505 9.65862 12.4031 9.21342 12.2216C8.76821 12.0401 8.38755 11.7325 8.11955 11.3378C7.85154 10.9431 7.7082 10.4789 7.70764 10.0039V9.99834ZM3.85525 13.7993C3.37327 13.7993 2.90212 13.9402 2.50136 14.2042C2.1006 14.4682 1.78823 14.8434 1.60374 15.2824C1.41925 15.7215 1.37093 16.2045 1.46489 16.6706C1.55886 17.1367 1.79087 17.5648 2.13162 17.9009C2.47236 18.237 2.90652 18.4659 3.37921 18.5587C3.8519 18.6516 4.3419 18.6041 4.78724 18.4224C5.23258 18.2407 5.61327 17.9328 5.88117 17.5378C6.14908 17.1428 6.29217 16.6783 6.29236 16.2031V13.7993H3.85525Z" fill="white"/>
</svg>
