<svg width="20" height="20" viewBox="0 0 20 20" fill="none" xmlns="http://www.w3.org/2000/svg">
<path fill-rule="evenodd" clip-rule="evenodd" d="M6.85525 0.000931339C6.0372 0.000333552 5.24019 0.256497 4.57967 0.732319C3.91914 1.20814 3.42939 1.87892 3.18135 2.64749C2.93332 3.41607 2.93986 4.24254 3.20005 5.0072C3.46024 5.77186 3.96056 6.43501 4.62854 6.90061C4.12572 7.25147 3.71565 7.71618 3.43276 8.25569C3.14988 8.79521 3.00245 9.39379 3.00286 10.0011C3.00286 11.2812 3.64539 12.4142 4.63043 13.1017C4.0908 13.4783 3.65856 13.9855 3.3753 14.5744C3.09204 15.1634 2.96728 15.8144 3.01304 16.4646C3.05879 17.1149 3.27352 17.7426 3.63655 18.2874C3.99959 18.8322 4.49872 19.2757 5.08592 19.5752C5.67312 19.8748 6.32863 20.0203 6.98937 19.9977C7.65012 19.9752 8.29386 19.7854 8.85866 19.4466C9.42346 19.1077 9.89032 18.6313 10.2143 18.0631C10.5383 17.4949 10.7085 16.854 10.7086 16.2022V12.9426C11.1094 13.2627 11.5713 13.5002 12.0669 13.6411C12.5625 13.7819 13.0818 13.8231 13.5939 13.7624C14.106 13.7016 14.6006 13.5401 15.0482 13.2873C15.4958 13.0346 15.8873 12.6958 16.1996 12.2911C16.5119 11.8863 16.7386 11.4239 16.8662 10.9312C16.9939 10.4384 17.0198 9.92542 16.9426 9.42261C16.8654 8.91979 16.6865 8.43738 16.4166 8.004C16.1467 7.57062 15.7913 7.19509 15.3715 6.89968C16.0394 6.43408 16.5398 5.77093 16.7999 5.00627C17.0601 4.24161 17.0667 3.41514 16.8186 2.64656C16.5706 1.87799 16.0809 1.20721 15.4203 0.731389C14.7598 0.255567 13.9628 -0.000596742 13.1448 1.04387e-06L6.85525 0.000931339ZM9.29236 12.404H6.85525C6.5352 12.404 6.21829 12.3418 5.92261 12.2211C5.62692 12.1003 5.35826 11.9233 5.13195 11.7002C4.90564 11.4771 4.72613 11.2122 4.60365 10.9207C4.48117 10.6291 4.41814 10.3167 4.41814 10.0011C4.41814 9.68559 4.48117 9.37313 4.60365 9.08161C4.72613 8.79008 4.90564 8.52519 5.13195 8.30207C5.35826 8.07894 5.62692 7.90195 5.92261 7.7812C6.21829 7.66044 6.5352 7.59829 6.85525 7.59829H9.29236V12.404ZM6.85525 6.20292H9.29236V1.39631H6.85525C6.20876 1.39631 5.58875 1.64951 5.13162 2.10022C4.67448 2.55093 4.41766 3.16222 4.41766 3.79961C4.41766 4.43701 4.67448 5.0483 5.13162 5.49901C5.58875 5.94971 6.20876 6.20292 6.85525 6.20292ZM15.5828 3.79915C15.5831 4.4361 15.3268 5.04709 14.8703 5.49783C14.4139 5.94857 13.7946 6.20218 13.1485 6.20292H10.7076V1.39631H13.1457C13.4657 1.39631 13.7827 1.45846 14.0783 1.57921C14.374 1.69997 14.6427 1.87696 14.869 2.10008C15.0953 2.32321 15.2748 2.58809 15.3973 2.87962C15.5198 3.17115 15.5828 3.4836 15.5828 3.79915ZM10.7076 9.99834C10.7084 9.36204 10.9651 8.752 11.4215 8.30207C11.8778 7.85213 12.4965 7.59903 13.1419 7.59829H13.1476C13.6294 7.59885 14.1002 7.74017 14.5005 8.00441C14.9008 8.26865 15.2128 8.64395 15.3969 9.08289C15.581 9.52184 15.629 10.0047 15.5349 10.4706C15.4408 10.9364 15.2087 11.3643 14.868 11.7002C14.5274 12.0361 14.0934 12.2649 13.6209 12.3577C13.1484 12.4505 12.6586 12.4031 12.2134 12.2216C11.7682 12.0401 11.3876 11.7325 11.1195 11.3378C10.8515 10.9431 10.7082 10.4789 10.7076 10.0039V9.99834ZM6.85525 13.7993C6.37327 13.7993 5.90212 13.9402 5.50136 14.2042C5.1006 14.4682 4.78823 14.8434 4.60374 15.2824C4.41925 15.7215 4.37093 16.2045 4.46489 16.6706C4.55886 17.1367 4.79087 17.5648 5.13162 17.9009C5.47236 18.237 5.90652 18.4659 6.37921 18.5587C6.8519 18.6516 7.3419 18.6041 7.78724 18.4224C8.23258 18.2407 8.61327 17.9328 8.88117 17.5378C9.14908 17.1428 9.29217 16.6783 9.29236 16.2031V13.7993H6.85525Z" fill="white"/>
</svg>
