<svg width="20" height="20" viewBox="0 0 20 20" fill="none" xmlns="http://www.w3.org/2000/svg">
<path d="M10 0C8.68678 0 7.38642 0.265079 6.17317 0.780103C4.95991 1.29513 3.85752 2.05001 2.92893 3.00165C1.05357 4.92357 0 7.53026 0 10.2483C0 14.4243 2.43926 18.0167 5.93091 19.6203C6.52323 19.8923 7.5 20.1235 7.5 19.4717V19.4717V19.4717C7.5 18.5828 6.64765 17.9817 5.78216 17.779C4.46785 17.4713 4.14 16.3665 4.14 16.3665C4.03292 16.0898 3.91555 15.8602 3.79848 15.6709C3.40333 15.032 3.1 14.2451 3.1 14.2451V14.2451C4.1 14.3168 4.63 15.3007 4.63 15.3007C5.3758 16.636 6.56252 16.4878 7.24522 16.2633C7.43142 16.202 7.56528 15.958 7.6155 15.7685V15.7685C7.73823 15.3055 7.42905 14.6821 6.96524 14.5625C5.18115 14.1024 3.62 12.932 3.62 9.73586C3.62 9.21083 3.70095 8.73382 3.85203 8.30082C4.16969 7.39039 4.4608 6.79318 4.44838 5.82901V5.82901C4.43861 5.07094 5.20739 4.16601 5.91736 4.43193C6.00372 4.46428 6.09512 4.50152 6.19166 4.54435C7.06617 4.93228 8.03105 5.11535 8.98236 5.01406C9.31978 4.97813 9.66069 4.96016 10 4.96016C10.3393 4.96016 10.6802 4.97813 11.0176 5.01406C11.969 5.11535 12.9338 4.93228 13.8083 4.54435C13.9049 4.50152 13.9963 4.46428 14.0826 4.43193C14.7926 4.16601 15.5614 5.07094 15.5516 5.82901V5.82901C15.5392 6.79318 15.8303 7.39039 16.148 8.30082C16.2991 8.73382 16.38 9.21083 16.38 9.73586C16.38 12.449 15.2561 13.6953 13.8238 14.29C13.0848 14.597 12.5 15.8634 12.5 16.6637V16.6637V19.4717V19.4717C12.5 20.1323 13.4906 19.8906 14.0901 19.6131C17.5744 18.0003 20 14.4198 20 10.2483C20 8.90245 19.7413 7.5698 19.2388 6.32643C18.7362 5.08305 17.9997 3.95329 17.0711 3.00165C16.1425 2.05001 15.0401 1.29513 13.8268 0.780103C12.6136 0.265079 11.3132 0 10 0Z" fill="white"/>
</svg>
