<svg width="25" height="24" viewBox="0 0 25 24" fill="none" xmlns="http://www.w3.org/2000/svg">
<path d="M12.5 0C10.8585 0 9.23303 0.318095 7.71646 0.936124C6.19989 1.55415 4.8219 2.46001 3.66117 3.60198C1.31696 5.90829 0 9.03631 0 12.2979C0 17.3142 3.05524 21.6288 7.42687 23.5502C8.15993 23.8724 9.375 24.1668 9.375 23.3661V23.3661V23.3661C9.375 22.2959 8.35997 21.5624 7.31063 21.3524C5.59855 21.0099 5.175 19.6398 5.175 19.6398C5.04246 19.311 4.89731 19.0377 4.75239 18.8118C4.25302 18.0334 3.875 17.0941 3.875 17.0941V17.0941C5.125 17.1802 5.7875 18.3608 5.7875 18.3608C6.72585 19.9737 8.22258 19.7829 9.0732 19.5106C9.29474 19.4397 9.4559 19.1542 9.51728 18.9299V18.9299C9.66791 18.3792 9.30035 17.6192 8.74554 17.4845C6.49923 16.9392 4.525 15.5407 4.525 11.683C4.525 11.059 4.62427 10.4915 4.80968 9.9758C5.20656 8.87198 5.56591 8.13071 5.56013 6.95772V6.95772C5.55574 6.06727 6.47071 5.00086 7.31325 5.28904C7.45231 5.33661 7.60246 5.39417 7.76394 5.46365C8.84005 5.92665 10.0208 6.14439 11.1858 6.02125C11.6213 5.97521 12.0617 5.9522 12.5 5.9522C12.9383 5.9522 13.3787 5.97521 13.8142 6.02125C14.9792 6.14439 16.1599 5.92665 17.2361 5.46365C17.3975 5.39417 17.5477 5.33661 17.6867 5.28904C18.5293 5.00086 19.4443 6.06727 19.4399 6.95772V6.95772C19.4341 8.13071 19.7934 8.87198 20.1903 9.9758C20.3757 10.4915 20.475 11.059 20.475 11.683C20.475 14.9844 19.0304 16.4759 17.2042 17.1776C16.3199 17.5174 15.625 19.049 15.625 19.9964V19.9964V23.3661V23.3661C15.625 24.1776 16.8574 23.8703 17.5994 23.5416C21.9619 21.6091 25 17.3088 25 12.2979C25 10.6829 24.6767 9.08376 24.0485 7.59171C23.4203 6.09966 22.4996 4.74395 21.3388 3.60198C20.1781 2.46001 18.8001 1.55415 17.2835 0.936124C15.767 0.318095 14.1415 0 12.5 0Z" fill="#8773FB"/>
</svg>
