<svg width="25" height="25" viewBox="0 0 25 25" fill="none" xmlns="http://www.w3.org/2000/svg">
<path d="M22.2222 0C22.9589 0 23.6655 0.292658 24.1864 0.813592C24.7073 1.33453 25 2.04107 25 2.77778V22.2222C25 22.9589 24.7073 23.6655 24.1864 24.1864C23.6655 24.7073 22.9589 25 22.2222 25H2.77778C2.04107 25 1.33453 24.7073 0.813592 24.1864C0.292658 23.6655 0 22.9589 0 22.2222V2.77778C0 2.04107 0.292658 1.33453 0.813592 0.813592C1.33453 0.292658 2.04107 0 2.77778 0H22.2222ZM19.5903 21.5278C20.6603 21.5278 21.5278 20.6603 21.5278 19.5903V14.1667C21.5278 12.9658 21.0507 11.8142 20.2016 10.965C19.3525 10.1159 18.2008 9.63889 17 9.63889C16.1851 9.63889 15.2776 9.98298 14.5743 10.5524C14.3078 10.7682 13.7778 10.5858 13.7778 10.2429V10.2429C13.7778 10.055 13.6255 9.90278 13.4377 9.90278H11.8403C10.7702 9.90278 9.90278 10.7702 9.90278 11.8403V19.5903C9.90278 20.6603 10.7702 21.5278 11.8403 21.5278V21.5278C12.9103 21.5278 13.7778 20.6603 13.7778 19.5903V14.6806C13.7778 13.6111 14.6389 12.7361 15.7083 12.7361C16.224 12.7361 16.7186 12.941 17.0833 13.3056C17.4479 13.6703 17.6528 14.1649 17.6528 14.6806V19.5903C17.6528 20.6603 18.5202 21.5278 19.5903 21.5278V21.5278ZM5.38889 7.72222C6.00773 7.72222 6.60122 7.47639 7.0388 7.0388C7.47639 6.60122 7.72222 6.00773 7.72222 5.38889C7.72222 4.09722 6.68056 3.04167 5.38889 3.04167C4.76637 3.04167 4.16934 3.28896 3.72915 3.72915C3.28896 4.16934 3.04167 4.76637 3.04167 5.38889C3.04167 6.68056 4.09722 7.72222 5.38889 7.72222ZM5.39583 21.5278C6.45821 21.5278 7.31944 20.6665 7.31944 19.6042V11.8264C7.31944 10.764 6.45821 9.90278 5.39583 9.90278V9.90278C4.33345 9.90278 3.47222 10.764 3.47222 11.8264V19.6042C3.47222 20.6665 4.33345 21.5278 5.39583 21.5278V21.5278Z" fill="#8773FB"/>
</svg>
