<svg width="20" height="20" viewBox="0 0 20 20" fill="none" xmlns="http://www.w3.org/2000/svg">
<path d="M17.7778 0C18.3671 0 18.9324 0.234126 19.3491 0.650874C19.7659 1.06762 20 1.63285 20 2.22222V17.7778C20 18.3671 19.7659 18.9324 19.3491 19.3491C18.9324 19.7659 18.3671 20 17.7778 20H2.22222C1.63285 20 1.06762 19.7659 0.650874 19.3491C0.234126 18.9324 0 18.3671 0 17.7778V2.22222C0 1.63285 0.234126 1.06762 0.650874 0.650874C1.06762 0.234126 1.63285 0 2.22222 0H17.7778ZM15.6722 17.2222C16.5283 17.2222 17.2222 16.5283 17.2222 15.6722V11.3333C17.2222 10.3727 16.8406 9.45133 16.1613 8.77204C15.482 8.09274 14.5607 7.71111 13.6 7.71111C12.9481 7.71111 12.2221 7.98639 11.6595 8.44193C11.4463 8.61457 11.0222 8.46864 11.0222 8.1943V8.1943C11.0222 8.04404 10.9004 7.92222 10.7501 7.92222H9.47222C8.61618 7.92222 7.92222 8.61618 7.92222 9.47222V15.6722C7.92222 16.5283 8.61618 17.2222 9.47222 17.2222V17.2222C10.3283 17.2222 11.0222 16.5283 11.0222 15.6722V11.7444C11.0222 10.8889 11.7111 10.1889 12.5667 10.1889C12.9792 10.1889 13.3749 10.3528 13.6666 10.6445C13.9583 10.9362 14.1222 11.3319 14.1222 11.7444V15.6722C14.1222 16.5283 14.8162 17.2222 15.6722 17.2222V17.2222ZM4.31111 6.17778C4.80618 6.17778 5.28098 5.98111 5.63104 5.63104C5.98111 5.28098 6.17778 4.80618 6.17778 4.31111C6.17778 3.27778 5.34444 2.43333 4.31111 2.43333C3.81309 2.43333 3.33547 2.63117 2.98332 2.98332C2.63117 3.33547 2.43333 3.81309 2.43333 4.31111C2.43333 5.34444 3.27778 6.17778 4.31111 6.17778ZM4.31667 17.2222C5.16657 17.2222 5.85556 16.5332 5.85556 15.6833V9.46111C5.85556 8.61121 5.16657 7.92222 4.31667 7.92222V7.92222C3.46676 7.92222 2.77778 8.61121 2.77778 9.46111V15.6833C2.77778 16.5332 3.46676 17.2222 4.31667 17.2222V17.2222Z" fill="white"/>
</svg>
